<svg height="496pt" viewBox="0 0 496 496" width="496pt" xmlns="http://www.w3.org/2000/svg" xmlns:xlink="http://www.w3.org/1999/xlink"><linearGradient id="a" gradientUnits="userSpaceOnUse" x1="248" x2="248" y1="496" y2="0"><stop offset="0" stop-color="#9f2fff"/><stop offset="1" stop-color="#0bb1d3"/></linearGradient><path d="m452.152344 335.832031-100.152344-22.246093v-15.929688c15.230469-9.960938 27.160156-24.503906 33.886719-41.664062h22.113281c17.648438 0 32-14.351563 32-32v-56c0-11.792969-6.480469-22-16-27.550782v-34.984375c0-17.425781-10.414062-32.953125-26.238281-39.664062l-1.90625-3.816407c-19.0625-38.128906-57.390625-61.816406-100.023438-61.816406-61.664062.007813-111.832031 50.175782-111.832031 111.839844v28.449219c-9.519531 5.550781-16 15.757812-16 27.550781v56c0 17.648438 14.351562 32 32 32h22.113281c6.726563 17.160156 18.65625 31.703125 33.886719 41.664062v15.929688l-100.152344 22.246094c-25.816406 5.734375-43.847656 28.222656-43.847656 54.664062v105.496094h384v-105.496094c0-26.441406-18.03125-48.929687-43.847656-54.671875zm-93.273438-4.328125-11.886718 47.542969-30.441407-20.285156 30-30zm-40.007812 48.023438-5.117188 20.472656h-19.507812l-5.125-20.472656 14.878906-9.910156zm-46.871094-62.839844v-10.800781c9.9375 3.898437 20.703125 6.113281 32 6.113281s22.0625-2.214844 32-6.113281v10.800781l-32 32zm152-148.6875v56c0 8.824219-7.175781 16-16 16h-17.527344c.960938-5.199219 1.527344-10.527344 1.527344-16v-72h16c8.824219 0 16 7.175781 16 16zm-224 72c-8.824219 0-16-7.175781-16-16v-56c0-8.824219 7.175781-16 16-16h16v72c0 5.472656.566406 10.800781 1.527344 16zm16-128v24h-16v-24c0-52.839844 42.992188-95.832031 95.832031-95.832031 36.527344 0 69.375 20.296875 85.710938 52.976562l4.792969 9.566407 3.144531 1.050781c11.070312 3.695312 18.519531 14.023437 18.519531 25.710937v30.527344h-16v-24h-16v18.878906c-5.960938 3.050782-12.472656 4.761719-19.183594 5.007813 3.6875-3.359375 7.007813-7.183594 9.839844-11.445313l-13.3125-8.875c-8.222656 12.335938-21.800781 19.808594-36.542969 20.335938 3.695313-3.367188 7.015625-7.199219 9.855469-11.460938l-13.3125-8.875c-8.222656 12.335938-21.800781 19.808594-36.542969 20.335938 3.695313-3.367188 7.015625-7.199219 9.855469-11.460938l-13.3125-8.875c-8.527344 12.792969-22.808594 20.433594-38.183594 20.433594h-3.160156v-24zm16 112v-72h3.160156c10.230469 0 20.085938-2.527344 28.839844-7.136719v7.136719h11.160156c10.230469 0 20.085938-2.527344 28.839844-7.136719v7.136719h11.160156c10.230469 0 20.085938-2.527344 28.839844-7.136719v7.136719h11.160156c7.167969 0 14.175782-1.382812 20.839844-3.777344v75.777344c0 5.503906-.679688 10.847656-1.855469 16h-39.625c-3.3125-9.289062-12.113281-16-22.527343-16h-16c-13.230469 0-24 10.769531-24 24s10.769531 24 24 24h16c10.414062 0 19.214843-6.710938 22.527343-16h33.878907c-11.804688 23.664062-36.207032 40-64.398438 40-39.703125 0-72-32.296875-72-72zm88 24c0 4.40625-3.585938 8-8 8h-16c-4.414062 0-8-3.59375-8-8s3.585938-8 8-8h16c4.414062 0 8 3.59375 8 8zm-58.550781 80.761719 30 30-30.441407 20.285156-11.886718-47.542969zm3.992187 151.238281h-73.441406v-88h-16v88h-48v-89.496094c0-18.886718 12.878906-34.953125 31.320312-39.046875l74.183594-16.488281 17.488282 69.984375 24-16 4.808593 19.246094zm16.320313 0 12.796875-64h18.890625l12.796875 64zm198.238281 0h-48v-88h-16v88h-73.441406l-14.359375-71.800781 4.808593-19.246094 24 16 17.488282-69.984375 74.183594 16.488281c18.441406 4.09375 31.320312 20.160157 31.320312 39.046875zm-136-304c0-4.414062 3.585938-8 8-8s8 3.585938 8 8-3.585938 8-8 8-8-3.585938-8-8zm-80 0c0 4.414062-3.585938 8-8 8s-8-3.585938-8-8 3.585938-8 8-8 8 3.585938 8 8zm-152-128h-80v-16h80zm0 32h-80v-16h80zm8 61.480469v-29.480469h24v-112h-144v112h65.992188zm-104-125.480469h112v80h-24v18.519531l-33.929688-18.519531h-54.070312zm152 296v-16h-129.054688l9.054688-13.574219v-130.425781c0-13.230469-10.769531-24-24-24s-24 10.769531-24 24v130.425781l19.71875 29.574219zm-152-160c0-4.40625 3.585938-8 8-8s8 3.59375 8 8v16h-16zm0 32h16v93.574219l-8 12-8-12zm152 96h-16v-16h16zm-104-16h72v16h-72zm72-16h-72v-16h72zm0-32h-16v-16h16zm-32-16v16h-40v-16zm0 0" fill="url(#a)"/></svg>