<svg height="384pt" viewBox="0 0 384 384.04" width="384pt" xmlns="http://www.w3.org/2000/svg"><path d="m16.019531 320v33.199219c0 12.402343 14.402344 19.28125 24.082031 11.519531l55.917969-44.71875h144v-128h-224zm0 0" fill="#cce4ff"/><g fill="#007aff"><path d="m.0195312 353.191406c0 11.953125 6.6953128 22.59375 17.4648438 27.769532 4.296875 2.070312 8.863281 3.078124 13.398437 3.078124 6.832032 0 13.585938-2.296874 19.183594-6.792968l51.5625-41.246094h154.390625v-160h-255.9999998zm31.9999998-145.191406h192v96h-133.609375l-58.390625 46.710938zm0 0"/><path d="m352.019531 146.800781v-2.800781c0-79.398438-64.597656-144-144-144-79.398437 0-144 64.601562-144 144v16h32v-16c0-61.761719 50.242188-112 112-112 61.761719 0 112 50.238281 112 112v2.800781c-18.617187 6.605469-32 24.34375-32 45.199219v96c0 26.472656 21.527344 48 48 48 26.472657 0 48-21.527344 48-48v-96c0-20.855469-13.382812-38.59375-32-45.199219zm0 141.199219c0 8.824219-7.175781 16-16 16s-16-7.175781-16-16v-96c0-8.824219 7.175781-16 16-16s16 7.175781 16 16zm0 0"/><path d="m88.019531 240h104v32h-104zm0 0"/></g></svg>