<svg height="368pt" viewBox="0 0 368 368" width="368pt" xmlns="http://www.w3.org/2000/svg"><path d="m72 360h256c-17.679688 0-32-14.320312-32-32v-288c0-17.679688-14.320312-32-32-32s-32 14.320312-32 32v32h-192v256c0 17.679688 14.320312 32 32 32zm16-224h144v64h-144zm0 0" fill="#cce4ff"/><g fill="#007aff"><path d="m360 192h-56v-152c0-22.054688-17.945312-40-40-40h-224c-22.054688 0-40 17.945312-40 40v32c0 4.414062 3.574219 8 8 8h24v248c0 22.054688 17.945312 40 40 40h256c22.054688 0 40-17.945312 40-40v-128c0-4.414062-3.574219-8-8-8zm-344-152c0-13.230469 10.769531-24 24-24h192.015625c-5.03125 6.6875-8.015625 15-8.015625 24v24h-208zm32 288v-248h184c4.425781 0 8-3.585938 8-8v-32c0-13.230469 10.769531-24 24-24s24 10.769531 24 24v288c0 9.039062 3.128906 17.296875 8.207031 24h-224.207031c-13.230469 0-24-10.769531-24-24zm304 0c0 13.230469-10.769531 24-24 24s-24-10.769531-24-24v-120h48zm0 0"/><path d="m232 240h-144c-4.425781 0-8 3.585938-8 8s3.574219 8 8 8h144c4.425781 0 8-3.585938 8-8s-3.574219-8-8-8zm0 0"/><path d="m232 288h-144c-4.425781 0-8 3.585938-8 8s3.574219 8 8 8h144c4.425781 0 8-3.585938 8-8s-3.574219-8-8-8zm0 0"/><path d="m232 128h-144c-4.425781 0-8 3.585938-8 8v64c0 4.414062 3.574219 8 8 8h144c4.425781 0 8-3.585938 8-8v-64c0-4.414062-3.574219-8-8-8zm-8 64h-128v-48h128zm0 0"/></g></svg>